<svg width="22" height="22" viewBox="0 0 22 22" fill="none" xmlns="http://www.w3.org/2000/svg">
<circle cx="11" cy="11" r="11" fill="white"/>
<path d="M7.05384 11.9596L11.1783 16.4615C11.5116 16.855 11.4633 17.4444 11.0704 17.7782C10.6775 18.1119 10.0887 18.0636 9.75542 17.6702L4.2707 11.6835C4.19183 11.6041 4.12792 11.5112 4.08205 11.4091C4.025 11.2822 3.99705 11.1441 4.00025 11.005L4.00026 11.0041C4.00344 10.8653 4.0374 10.7289 4.09969 10.6049C4.10575 10.5929 4.11206 10.581 4.11863 10.5693C4.15665 10.5012 4.2031 10.4381 4.25689 10.3817L9.88744 4.29913C10.2377 3.92075 10.828 3.89833 11.2059 4.24903C11.5837 4.59973 11.6061 5.19077 11.2559 5.56914L7.06972 10.0914H17.0671C17.5823 10.0914 18 10.5096 18 11.0255C18 11.5414 17.5823 11.9597 17.0671 11.9597H7.05384V11.9596Z" fill="black"/>
</svg>
