<svg width="24" height="24" viewBox="0 0 24 24" fill="none" xmlns="http://www.w3.org/2000/svg">
<path d="M15.4268 2.00965C15.3443 2.01889 15.0492 2.05121 14.7758 2.07892C13.4998 2.20361 11.7725 2.61923 11.3255 2.91017C11.0955 3.05333 11 3.3027 11 3.73218V4.10624H11.4687C11.7248 4.10624 12.0069 4.12933 12.0937 4.15242C12.4018 4.24478 12.4756 4.36023 13.0007 5.5563C13.2741 6.17974 13.5172 6.69234 13.5476 6.69234C13.5736 6.69234 13.6864 6.76623 13.7993 6.85859C14.0553 7.0664 14.1812 7.11258 14.4503 7.11258C14.7193 7.11258 14.8452 7.0664 15.0969 6.85859C15.3617 6.64616 15.5353 6.61383 15.7826 6.72928C16.0257 6.84012 16.1646 7.0664 16.1646 7.33886C16.1646 7.58824 16.0561 7.77758 15.787 7.99001C15.4007 8.29941 15.0665 8.44257 14.6022 8.48875L14.3071 8.51646L14.8886 9.8326C15.2054 10.5576 15.5266 11.2919 15.6004 11.4674C15.7262 11.7629 15.7392 11.7814 15.8521 11.7537C16.6984 11.5505 17.3971 11.5413 18.0524 11.7214C18.7772 11.92 19.8665 12.6404 20.0445 13.0375C20.1834 13.3515 20.1096 13.7025 19.8579 13.8919C19.5627 14.1181 19.2893 14.0581 18.8857 13.684C18.5776 13.3977 18.1349 13.1483 17.7269 13.0375C17.3841 12.9405 16.7114 12.9313 16.3859 13.0144C16.1602 13.0745 16.1559 13.0791 16.1819 13.2222C16.4944 14.8386 16.4814 16.2701 16.1429 17.6925C16.1125 17.8126 16.1212 17.8172 16.4293 17.9142C17.0325 18.1081 17.7096 17.9788 18.7165 17.4708C20.8821 16.3902 22.3707 14.3767 22.9002 11.8184L23 11.3335V7.28806V3.24267L22.8828 3.07642C22.7396 2.88246 22.362 2.71621 21.5678 2.49916C20.2007 2.1251 19.2807 2.01889 17.2278 2.00503C16.3208 1.9958 15.5092 2.00042 15.4268 2.00965ZM19.1548 6.78008C19.4542 7.03407 19.6322 7.1172 19.8926 7.1172C20.166 7.1172 20.3483 7.03869 20.5783 6.82626C20.8474 6.57689 21.2119 6.60921 21.455 6.90015C21.7024 7.20032 21.6763 7.55591 21.3812 7.85608C20.5957 8.67348 19.2893 8.69656 18.4734 7.91612C18.1262 7.58362 18.0741 7.23265 18.3215 6.91862C18.5472 6.63692 18.9161 6.57689 19.1548 6.78008Z" fill="#10B7D1"/>
<path d="M10.2099 6.03847C7.6824 6.36059 3.95485 7.93094 1.5683 9.68025C0.927343 10.15 0.304569 10.6869 0.131828 10.9195C0.022729 11.0716 0 11.1477 0 11.3625C0 11.6085 0.068187 11.7651 1.40465 14.5703C3.09114 18.1091 3.05023 18.0241 3.45935 18.6326C3.92302 19.3216 4.83673 20.2119 5.54587 20.6772C7.00053 21.6212 8.58701 22.0641 10.2735 21.9925C10.9872 21.9612 11.5736 21.8673 11.8373 21.7375C11.9373 21.6883 12.1918 21.5049 12.3964 21.3259C13.792 20.109 14.7238 18.3507 14.9557 16.503C15.0148 16.0198 15.0148 15.1116 14.9557 14.624C14.8875 14.0602 14.6602 13.2102 14.4329 12.6644C14.1693 12.0291 11.4827 6.40533 11.369 6.25321C11.1827 6.00267 10.9054 5.95346 10.2099 6.03847ZM11.2781 10.4363C11.6191 10.5124 11.8145 10.6287 11.9145 10.8211C12.0827 11.1253 11.9827 11.5011 11.7009 11.6756C11.5327 11.7741 11.4054 11.783 10.8826 11.7383C10.6099 11.7114 10.5326 11.7204 10.3826 11.7964C10.169 11.9038 10.0417 12.038 9.91893 12.2796C9.80983 12.4899 9.59618 12.6867 9.42799 12.727C9.11887 12.8031 8.72339 12.5659 8.63702 12.2438C8.57338 12.0112 8.66429 11.7338 8.92795 11.3625C9.46435 10.6019 10.4008 10.2305 11.2781 10.4363ZM6.26866 12.8612C6.55959 12.9418 6.74597 13.1118 6.81415 13.3489C6.95053 13.841 6.46413 14.2884 5.955 14.1363C5.67316 14.0558 5.44132 14.0781 5.18221 14.2079C4.9822 14.3108 4.91401 14.3824 4.77763 14.624C4.68217 14.785 4.54125 14.9595 4.45943 15.0132C4.04576 15.2861 3.45481 14.9684 3.45481 14.4718C3.45481 14.1989 3.69573 13.756 4.02303 13.4384C4.62762 12.8433 5.44587 12.633 6.26866 12.8612ZM12.1009 15.0356C12.4328 15.2637 12.46 15.5993 12.1918 16.154C11.2963 17.9928 9.20524 18.9681 7.21418 18.4715C6.75051 18.3552 6.55504 18.2389 6.44594 18.0241C6.29139 17.7244 6.38685 17.3754 6.67778 17.1875C6.8687 17.0622 7.01871 17.0578 7.47784 17.1741C7.90969 17.2815 8.57792 17.2904 9.00068 17.192C9.52345 17.0712 9.93257 16.8386 10.369 16.4135C10.7008 16.0914 10.7963 15.9661 10.9736 15.6037C11.0917 15.3666 11.2327 15.1295 11.2918 15.0758C11.5054 14.879 11.8554 14.8611 12.1009 15.0356Z" fill="#10B7D1"/>
</svg>
