<svg width="24" height="24" viewBox="0 0 24 24" fill="none" xmlns="http://www.w3.org/2000/svg">
<path d="M2 2.95909V3.91828L3.004 3.92581L4.00409 3.93709L5.70737 7.39772C6.64496 9.30107 7.45362 10.9486 7.50441 11.0539L7.59817 11.2496L6.89498 12.4081C6.26992 13.4425 6.18398 13.608 6.10194 13.9052C5.89098 14.6989 6.06287 15.3572 6.6137 15.88C6.73481 15.9966 6.93795 16.1433 7.06687 16.211C7.54738 16.4555 7.18407 16.4443 13.9073 16.4443H20.0095V15.4851V14.5259H14.1964C7.82475 14.5259 8.2115 14.5409 8.2115 14.3115C8.2115 14.255 8.41074 13.8525 8.64904 13.4124L9.09049 12.6112L12.9776 12.5999L16.8646 12.5887L17.1186 12.5059C17.5717 12.3554 17.9077 12.0959 18.146 11.7122C18.2202 11.5956 19.068 10.1248 20.029 8.45095C20.99 6.7733 21.8104 5.37024 21.8495 5.32887C22.0175 5.14455 22.0487 4.83234 21.9237 4.50885C21.8338 4.28315 21.662 4.1026 21.4354 4.0048C21.2869 3.94085 20.9041 3.93709 13.7394 3.92581L6.1957 3.91828L5.75034 2.95909L5.30108 1.99989H3.65249H2V2.95909Z" fill="#FB923C"/>
<path d="M7.98249 17.6567C6.81377 18.0538 6.1751 19.3106 6.55309 20.4714C6.79639 21.2176 7.5263 21.8372 8.31703 21.9725C9.44664 22.1602 10.5893 21.366 10.8326 20.2226C10.9108 19.8343 10.9108 19.6379 10.8109 19.2539C10.611 18.4684 10.0201 17.8531 9.24679 17.6262C8.89487 17.5214 8.33006 17.5345 7.98249 17.6567Z" fill="#FB923C"/>
<path d="M17.9825 17.6567C16.8138 18.0538 16.1751 19.3106 16.5531 20.4714C16.7964 21.2176 17.5263 21.8372 18.317 21.9725C19.4466 22.1602 20.5893 21.366 20.8326 20.2226C20.9108 19.8343 20.9108 19.6379 20.8109 19.2539C20.611 18.4684 20.0201 17.8531 19.2468 17.6262C18.8949 17.5214 18.3301 17.5345 17.9825 17.6567Z" fill="#FB923C"/>
</svg>
