<svg width="20" height="20" viewBox="0 0 20 20" fill="none" xmlns="http://www.w3.org/2000/svg">
<path d="M7.92678 0.0781898C7.83628 0.119343 7.71288 0.205763 7.65117 0.271606C7.40436 0.539095 7.41259 0.382717 7.41259 4.0535V7.40741H4.05183C0.863842 7.40741 0.678733 7.41152 0.522419 7.4856C0.320856 7.58025 0.156314 7.74897 0.0740436 7.95062C-0.0246812 8.18107 -0.0246812 11.8189 0.0740436 12.0494C0.156314 12.251 0.320856 12.4198 0.522419 12.5144C0.678733 12.5885 0.863842 12.5926 4.05183 12.5926H7.41259V15.9547C7.41259 19.144 7.4167 19.3292 7.49074 19.4856C7.53188 19.5761 7.61826 19.6996 7.68408 19.7613C7.93912 20 7.93912 20 10.0123 20C11.777 20 11.9292 19.9918 12.0814 19.9218C12.1719 19.8807 12.2954 19.7942 12.3571 19.7284C12.6039 19.4609 12.5956 19.6173 12.5956 15.9465V12.5926H15.9605C19.1444 12.5926 19.3295 12.5885 19.4858 12.5144C19.5763 12.4733 19.6997 12.3868 19.7614 12.321C20 12.0658 20 12.0658 20 9.99177C20 8.22634 19.9918 8.07407 19.9218 7.92181C19.8807 7.83128 19.7943 7.70782 19.7285 7.64609C19.4611 7.39918 19.6174 7.40741 15.9482 7.40741H12.5956V4.0535C12.5956 0.382717 12.6039 0.539095 12.3571 0.271606C12.2954 0.205763 12.1719 0.119343 12.0814 0.0781898C11.9292 0.00823021 11.7812 0 10.0041 0C8.22707 0 8.07898 0.00823021 7.92678 0.0781898Z" fill="#2BD4BD"/>
</svg>
