<svg width="22" height="22" viewBox="0 0 22 22" fill="none" xmlns="http://www.w3.org/2000/svg">
<path d="M10.4989 0.0509548C9.9399 0.205889 10.0947 0.0638657 5.14107 5.01316C2.56965 7.58679 0.406736 9.77739 0.337936 9.88068C-0.195268 10.6769 -0.0877671 11.7442 0.591637 12.4285C0.98724 12.8201 1.49034 13.0267 2.06655 13.0267H2.35895V16.4697C2.35895 18.798 2.37615 19.9815 2.40625 20.1365C2.56965 20.9198 3.20175 21.6299 3.98436 21.901C4.26816 22 4.28966 22 6.36658 22C8.41339 22 8.46069 22 8.57679 21.9096C8.64129 21.8623 8.73589 21.7676 8.78319 21.703C8.87349 21.5868 8.87349 21.5309 8.89499 18.7119L8.91649 15.8371L9.04549 15.6262C9.20889 15.3636 9.54 15.1528 9.8582 15.114C9.9786 15.0968 10.5806 15.0925 11.1955 15.1011L12.3135 15.114L12.5414 15.2388C12.7564 15.3593 12.894 15.5014 13.0273 15.7381C13.0746 15.8284 13.0918 16.3578 13.109 18.7163C13.1305 21.5309 13.1305 21.5868 13.2208 21.703C13.2681 21.7676 13.3627 21.8623 13.4272 21.9096C13.5433 22 13.5906 22 15.6374 22C17.7143 22 17.7358 22 18.0197 21.901C18.8023 21.6299 19.4344 20.9198 19.5978 20.1365C19.6279 19.9815 19.6451 18.798 19.6451 16.4697V13.0267H19.9375C20.9695 13.0267 21.8037 12.3252 21.9757 11.3138C22.0402 10.9179 21.9757 10.4961 21.7908 10.1002C21.6661 9.84195 21.292 9.45461 16.9833 5.13797C14.4162 2.56434 12.2232 0.399557 12.1114 0.326395C11.9996 0.253231 11.8061 0.154245 11.6814 0.106903C11.3804 -0.00929642 10.8042 -0.03512 10.4989 0.0509548Z" fill="#F471B5"/>
</svg>
