<svg width="15" height="22" viewBox="0 0 15 22" fill="none" xmlns="http://www.w3.org/2000/svg">
<path d="M1.72704 0.026659C0.920247 0.155788 0.177994 0.874603 0.0396863 1.66228C0.00741446 1.85598 -0.00641634 4.76997 0.00280419 11.1747C0.016635 19.9038 0.0212453 20.4203 0.0996198 20.6312C0.293251 21.1607 0.828042 21.6815 1.40894 21.901L1.67633 22H7.50832H13.3403L13.6077 21.901C14.2024 21.6772 14.7418 21.1434 14.917 20.6097C14.9954 20.3773 15 19.8306 15 11.0026C15 2.17449 14.9954 1.62785 14.917 1.39542C14.7418 0.861691 14.2024 0.327959 13.6077 0.104137L13.3403 0.0051384L7.64663 0.000833511C4.51625 -0.00346947 1.85152 0.00944328 1.72704 0.026659ZM12.8562 11.0026V18.0185H7.50832H2.16041V11.0026V3.9866H7.50832H12.8562V11.0026Z" fill="#91D624"/>
</svg>
