<svg width="24" height="24" viewBox="0 0 24 24" fill="none" xmlns="http://www.w3.org/2000/svg">
<g clip-path="url(#clip0_9255_7269)">
<path d="M9.07031 0.773438C5.03906 1.90312 1.88438 5.19375 0.91875 9.28125C0.69375 10.2328 0.632812 10.7719 0.632812 11.9297C0.6375 13.1484 0.703125 13.7203 0.960938 14.7469C1.7625 17.8969 3.90469 20.5922 6.80625 22.0969C8.47969 22.9687 10.2094 23.3906 12.1125 23.3906C16.9266 23.3906 21.2484 20.2969 22.8516 15.6984C23.0813 15.0422 23.25 14.3766 23.25 14.1375C23.25 13.8656 23.0859 13.6031 22.8281 13.4672L22.6219 13.3547L20.25 13.3687L17.8781 13.3828L17.6859 13.5094C17.5266 13.6125 17.4703 13.7016 17.2969 14.1047C16.5188 15.9469 15.1125 17.1375 13.2188 17.5453C12.6375 17.6719 11.5453 17.6766 11.0016 17.5594C8.65313 17.0484 6.89063 15.2719 6.44063 12.9516C6.33281 12.4078 6.33281 11.4141 6.44063 10.8609C6.525 10.4109 6.74063 9.76875 6.92344 9.39844C7.51875 8.20781 8.64844 7.14844 9.9 6.60469C10.0875 6.525 10.3031 6.40312 10.3781 6.33281C10.6406 6.08906 10.6406 6.1125 10.6406 3.55312V1.19531L10.5328 1.00781C10.3969 0.768749 10.1203 0.609375 9.84375 0.614061C9.72656 0.614061 9.37969 0.684374 9.07031 0.773438Z" fill="#1C1C1E" fill-opacity="0.88"/>
<path d="M13.9786 0.689063C13.777 0.7875 13.6083 0.989063 13.5473 1.20938C13.4723 1.49063 13.4864 5.78906 13.5661 6.01406C13.6645 6.28594 13.763 6.36563 14.3301 6.63281C15.7036 7.28438 16.6692 8.23594 17.3255 9.58594C17.4895 9.92344 17.6583 10.2328 17.7051 10.2797C17.9489 10.4953 18.0051 10.5 20.4239 10.5C22.9692 10.5 22.9411 10.5 23.2176 10.1766C23.4661 9.87656 23.4426 9.58125 23.063 8.42813C22.5239 6.78281 21.5864 5.24531 20.3536 3.975C18.8489 2.41875 17.0958 1.36406 15.0567 0.773438C14.4145 0.590626 14.2083 0.576563 13.9786 0.689063Z" fill="#1C1C1E" fill-opacity="0.88"/>
</g>
<defs>
<clipPath id="clip0_9255_7269">
<rect width="24" height="24" fill="white"/>
</clipPath>
</defs>
</svg>
