<svg width="24" height="24" viewBox="0 0 24 24" fill="none" xmlns="http://www.w3.org/2000/svg">
<path d="M17.6968 1.0762C16.9074 1.28709 16.2908 1.91976 16.0806 2.72114C15.9731 3.12417 15.9731 19.8735 16.0806 20.2766C16.2908 21.0873 16.912 21.7153 17.7155 21.9262C18.1078 22.0246 19.8922 22.0246 20.2845 21.9262C21.088 21.7153 21.7092 21.0873 21.9194 20.2766C22.0269 19.8735 22.0269 3.12417 21.9194 2.72114C21.7092 1.91038 21.088 1.2824 20.2845 1.07151C19.9062 0.973095 18.0658 0.977781 17.6968 1.0762Z" fill="#A8A29F"/>
<path d="M10.696 7.07619C9.90614 7.28706 9.2892 7.91967 9.07888 8.72098C8.97138 9.12867 8.97606 19.8737 9.07888 20.2861C9.2892 21.0921 9.91549 21.7153 10.7241 21.9262C11.1026 22.0246 12.8974 22.0246 13.2759 21.9262C14.0845 21.7153 14.7108 21.0921 14.9211 20.2861C15.0239 19.8737 15.0286 9.12867 14.9211 8.72098C14.7108 7.9103 14.0892 7.28238 13.2853 7.0715C12.9067 6.9731 11.0652 6.97778 10.696 7.07619Z" fill="#A8A29F"/>
<path d="M2.69525 11.0798C1.90491 11.3007 1.28761 11.9633 1.07716 12.8027C0.974279 13.2199 0.974279 19.7777 1.07716 20.1949C1.28761 21.0441 1.90959 21.7018 2.71395 21.9227C3.10678 22.0258 4.89322 22.0258 5.28605 21.9227C6.09041 21.7018 6.71239 21.0441 6.92284 20.1949C7.02572 19.7777 7.02572 13.2199 6.92284 12.8027C6.71239 11.9535 6.09041 11.2958 5.28605 11.0749C4.90725 10.9718 3.06469 10.9767 2.69525 11.0798Z" fill="#A8A29F"/>
</svg>
