<svg width="22" height="20" viewBox="0 0 22 20" fill="none" xmlns="http://www.w3.org/2000/svg">
<path d="M5.42695 0.117371C5.20781 0.178404 4.85977 0.314554 4.65352 0.422535C3.83281 0.840376 3.75547 0.910797 1.81328 3.02347L0 5L1.81328 6.98122C2.81445 8.07512 3.64805 8.96714 3.67383 8.96714C3.69531 8.96714 3.91445 8.75117 4.15508 8.48826L4.59766 8.00469V14.0047V20H11H17.4023V14.0047V8.00469L17.8449 8.48826C18.0855 8.75117 18.3047 8.96714 18.3262 8.96714C18.352 8.96714 19.1855 8.07512 20.1867 6.98122L22 5L20.1867 3.02347C18.2445 0.910797 18.1672 0.840376 17.3465 0.422535C17.1402 0.314554 16.7836 0.178404 16.5559 0.112677C16.182 0.00938988 16.0617 0 15.1852 0H14.227L14.2055 0.150234C14.0938 1.01408 13.9605 1.4507 13.6555 1.93897C12.534 3.75117 10.1836 4.00469 8.75273 2.47418C8.18984 1.87324 7.94063 1.2676 7.79453 0.150234L7.77305 0H6.79766C5.9125 0.00469398 5.78359 0.0140839 5.42695 0.117371Z" fill="#FAC905"/>
</svg>
