<svg width="20" height="20" viewBox="0 0 20 20" fill="none" xmlns="http://www.w3.org/2000/svg">
<path d="M3.64072 0.0417938C3.14854 0.11207 2.65636 0.494192 2.45323 0.96855C2.39855 1.09592 1.82434 2.90112 1.17591 4.97864L0.000145157 8.76033V13.8553C0.000145157 19.5652 -0.0154796 19.2489 0.277485 19.6047C0.363421 19.7057 0.523575 19.8375 0.636855 19.8946C0.828258 19.9912 0.886851 20 1.64075 20C2.5548 20 2.73839 19.9561 2.98448 19.6882C3.27354 19.3719 3.30088 19.2665 3.3126 18.3397L3.32822 17.5184H10H16.6718L16.6874 18.3397C16.6991 19.2665 16.7265 19.3719 17.0155 19.6882C17.2616 19.9561 17.4452 20 18.3593 20C19.1131 20 19.1717 19.9912 19.3631 19.8946C19.4764 19.8375 19.6366 19.7057 19.7225 19.6047C20.0155 19.2489 19.9999 19.5652 19.9999 13.8553V8.76033L18.8241 4.97864C18.1796 2.90112 17.6015 1.10471 17.5468 0.986118C17.3085 0.489799 16.828 0.120853 16.3085 0.0374012C15.9765 -0.0153046 4.00399 -0.0109119 3.64072 0.0417938ZM16.9296 4.63605C17.3788 6.15575 17.7538 7.42071 17.7655 7.44706C17.7772 7.49098 16.2108 7.50416 10 7.50416C3.78915 7.50416 2.22277 7.49098 2.23449 7.44706C2.24621 7.42071 2.6212 6.15575 3.07041 4.63605L3.88681 1.88213H10H16.1132L16.9296 4.63605ZM4.18368 10.0516C4.79304 10.1834 5.32429 10.7456 5.48835 11.4352C5.68756 12.2653 5.30866 13.1482 4.5743 13.5566C4.29696 13.7104 4.2618 13.7191 3.89071 13.7191C3.52744 13.7191 3.47666 13.706 3.23057 13.5786C2.71104 13.3019 2.35167 12.7748 2.25402 12.1467C2.09777 11.1058 2.88292 10.0516 3.85165 10.0121C3.91806 10.0077 4.06649 10.0297 4.18368 10.0516ZM16.6366 10.1175C17.0311 10.2713 17.4218 10.6753 17.6132 11.1189C17.9999 12.015 17.6171 13.1262 16.7694 13.5786C16.5233 13.706 16.4726 13.7191 16.1093 13.7191C15.7382 13.7191 15.703 13.7104 15.4257 13.5566C14.6913 13.1482 14.3124 12.2653 14.5117 11.4352C14.6718 10.7632 15.1991 10.1922 15.7851 10.0516C16.0038 9.99894 16.4257 10.0341 16.6366 10.1175Z" fill="#FB657C"/>
</svg>
