<svg width="22" height="21" viewBox="0 0 22 21" fill="none" xmlns="http://www.w3.org/2000/svg">
<path d="M6.61407 0.0259266C6.61407 0.043211 7.22521 2.01358 7.96976 4.40309C8.71431 6.79691 9.32544 8.77593 9.32544 8.80617C9.32544 8.84506 8.61962 8.85803 6.31281 8.85803H3.30018L2.46095 7.73457L1.62172 6.61111H0.799699C0.0379337 6.61111 -0.0180152 6.61543 0.00350361 6.68457C0.283248 7.63519 1.06223 10.4352 1.06223 10.5C1.06223 10.5648 0.283248 13.3648 0.00350361 14.3111C-0.0180152 14.3846 0.0379337 14.3889 0.799699 14.3889H1.62172L2.46095 13.2654L3.30018 12.142H6.31281C8.61962 12.142 9.32544 12.1549 9.32544 12.1938C9.32544 12.2241 8.71431 14.2031 7.96976 16.5969C7.22521 18.9864 6.61407 20.9568 6.61407 20.9741C6.61407 20.987 7.1047 21 7.70723 21H8.80038L11.5548 16.584L14.3092 12.1636L17.5327 12.142C19.8094 12.1247 20.7906 12.1031 20.8896 12.0685C21.1134 11.9907 21.4792 11.7272 21.6299 11.537C21.7073 11.442 21.8192 11.2519 21.8838 11.1136C21.9785 10.9062 22 10.8068 22 10.5C22 10.1932 21.9785 10.0938 21.8838 9.88642C21.8192 9.74815 21.7073 9.55803 21.6299 9.46296C21.4792 9.27284 21.1134 9.00926 20.8896 8.93148C20.7906 8.89691 19.8094 8.87531 17.5327 8.85803L14.3092 8.83642L11.5548 4.41605L8.80038 0H7.70723C7.1047 0 6.61407 0.0129642 6.61407 0.0259266Z" fill="#30D96E"/>
</svg>
